<!DOCTYPE svg PUBLIC "-//W3C//DTD SVG 20010904//EN" "http://www.w3.org/TR/2001/REC-SVG-20010904/DTD/svg10.dtd">
<svg version="1.0" xmlns="http://www.w3.org/2000/svg" width="620px" height="324px" viewBox="0 0 6200 3240" preserveAspectRatio="xMidYMid meet">
<g id="layer101" fill="#211f23" stroke="none">
<path d="M0 1620 l0 -1620 3100 0 3100 0 0 1620 0 1620 -3100 0 -3100 0 0 -1620z"/>
</g>
<g id="layer102" fill="#02529e" stroke="none">
<path d="M0 1620 l0 -1620 3100 0 3100 0 0 1620 0 1620 -3100 0 -3100 0 0 -1620z m1441 1455 c10 -16 32 -106 48 -200 47 -261 86 -476 136 -755 50 -277 63 -335 73 -326 7 8 8 10 16 121 12 163 36 468 46 580 5 61 12 151 15 200 4 50 8 106 10 125 2 19 7 73 10 120 10 148 13 160 42 160 l25 0 -6 -92 c-4 -51 -9 -118 -12 -148 -10 -125 -14 -179 -19 -245 -3 -38 -8 -95 -10 -125 -3 -30 -7 -84 -10 -120 -3 -36 -7 -85 -10 -110 -3 -25 -10 -112 -15 -195 -21 -294 -25 -321 -56 -342 -31 -20 -70 -6 -83 30 -5 13 -39 189 -75 393 -37 203 -71 392 -77 419 -5 28 -25 138 -45 245 -19 107 -39 199 -43 203 -11 11 -5 37 -85 -413 -149 -835 -153 -853 -176 -872 -28 -23 -42 -23 -69 0 -24 19 -34 75 -45 242 -4 52 -9 118 -11 145 -9 89 -24 288 -30 380 -3 50 -8 101 -10 115 -2 14 -7 70 -10 125 -4 55 -8 110 -10 122 -2 11 -7 71 -10 132 l-7 111 25 0 c28 0 30 -10 42 -175 3 -44 8 -100 10 -125 3 -25 9 -110 15 -190 6 -80 12 -163 15 -185 4 -41 32 -376 43 -539 4 -49 12 -91 17 -93 6 -2 24 77 44 184 18 104 53 298 77 433 24 135 58 322 74 415 17 94 35 188 41 210 21 78 67 97 100 40z m-781 3 c79 -33 139 -137 159 -274 5 -38 10 -295 10 -570 1 -440 -1 -502 -14 -508 -45 -17 -44 -27 -47 557 -3 493 -5 557 -20 595 -44 110 -95 141 -230 142 l-88 0 0 41 0 42 98 -5 c54 -3 113 -12 132 -20z m2408 -1153 c62 -52 51 -139 -22 -174 -23 -12 -47 -21 -53 -21 -20 0 -51 -49 -46 -70 11 -43 85 -51 98 -11 6 21 42 34 51 19 11 -17 -6 -58 -31 -74 -14 -9 -44 -17 -67 -17 -55 0 -98 44 -98 101 0 46 23 71 93 101 56 24 76 57 59 96 -23 51 -104 37 -118 -20 -4 -18 -13 -25 -30 -25 -13 0 -24 5 -24 10 0 24 30 79 51 94 36 25 102 21 137 -9z m509 14 c15 -6 38 -20 51 -31 l22 -21 0 26 c0 20 5 27 20 27 28 0 31 -23 28 -200 -3 -153 -3 -155 -25 -156 -19 -1 -23 4 -23 29 l0 30 -22 -20 c-36 -32 -63 -43 -111 -43 -109 0 -187 78 -187 186 0 128 128 218 247 173z m850 0 c15 -6 38 -20 51 -31 l22 -21 0 26 c0 20 5 27 20 27 19 0 20 -7 20 -178 0 -171 -1 -178 -20 -178 -15 0 -20 7 -20 30 l0 29 -22 -20 c-36 -32 -63 -43 -112 -43 -56 0 -93 14 -129 48 -43 40 -57 75 -57 137 0 31 6 68 14 83 18 35 64 78 96 91 34 13 102 13 137 0z m442 -14 c52 -30 51 -30 51 -5 0 13 7 20 20 20 19 0 20 -7 20 -236 l0 -235 -22 3 c-22 3 -23 8 -23 81 0 42 -1 77 -2 77 -1 0 -19 -11 -39 -25 -48 -33 -129 -35 -184 -4 -101 57 -123 206 -42 293 57 61 146 73 221 31z m404 10 c74 -31 125 -131 107 -211 -21 -90 -92 -147 -185 -147 -100 1 -175 79 -176 186 -1 30 6 67 14 83 19 37 64 80 97 93 37 15 103 13 143 -4z m-2823 -230 c0 -228 -1 -235 -20 -235 -11 0 -20 6 -21 13 0 6 -1 112 -2 234 l-2 223 23 0 22 0 0 -235z m130 116 c0 -66 4 -131 10 -145 17 -46 90 -69 143 -45 42 19 50 46 48 162 -2 124 3 147 30 147 18 0 19 -8 19 -125 0 -181 -23 -224 -125 -233 -43 -3 -62 0 -90 16 -27 16 -35 18 -35 7 0 -18 -14 -27 -34 -19 -14 5 -16 30 -16 180 l0 174 25 0 25 0 0 -119z m660 -36 l0 -155 35 0 c30 0 35 -3 35 -23 0 -18 -5 -23 -22 -22 -42 4 -48 -5 -48 -62 0 -51 -2 -54 -22 -51 -20 3 -23 9 -24 48 -1 65 -3 72 -14 65 -18 -11 -50 6 -50 26 0 14 7 19 29 19 16 0 31 6 34 14 3 8 5 78 4 155 -2 140 -2 141 21 141 22 0 22 -1 22 -155z m570 -80 c0 -228 -1 -235 -20 -235 -19 0 -20 7 -20 235 0 228 1 235 20 235 19 0 20 -7 20 -235z m310 -1 c0 -233 0 -235 -21 -232 -21 3 -21 8 -22 235 l-2 233 23 0 22 0 0 -236z m1365 217 c3 -11 5 -66 4 -123 -3 -123 3 -144 44 -162 21 -8 33 -21 34 -35 2 -28 -26 -28 -61 0 -26 20 -26 20 -26 1 0 -14 -6 -19 -17 -18 -16 3 -18 20 -21 179 -2 170 -2 177 17 177 11 0 22 -9 26 -19z m-1511 -206 c4 -12 -17 -45 -29 -45 -2 0 -10 7 -19 15 -20 20 -10 45 19 45 13 0 25 -7 29 -15z"/>
</g>
<g id="layer103" fill="#ffffff" stroke="none">
<path d="M0 1620 l0 -1620 3100 0 3100 0 0 1620 0 1620 -3100 0 -3100 0 0 -1620z m320 558 c0 -543 4 -992 10 -1058 35 -405 177 -661 435 -785 123 -59 180 -70 370 -70 148 0 180 3 250 23 299 87 484 328 539 704 10 63 17 187 18 303 l2 196 -712 0 c-391 0 -719 2 -727 5 -11 5 -15 23 -15 75 l0 69 726 2 725 3 -1 738 -1 737 86 0 85 0 1 -962 c1 -1139 2 -1088 -17 -1208 -45 -277 -178 -514 -373 -662 -271 -205 -717 -240 -1034 -82 -222 111 -375 291 -459 539 -70 207 -68 172 -68 1333 l0 1042 80 0 80 0 0 -942z m2303 926 c18 -9 47 -30 65 -47 l32 -31 0 28 c0 40 17 66 43 66 45 0 47 -12 47 -242 0 -211 -1 -218 -21 -229 -28 -15 -67 2 -73 33 -3 13 -7 85 -8 160 -3 129 -4 138 -27 162 -48 51 -118 52 -155 2 -19 -24 -22 -46 -26 -184 l-5 -156 -27 -15 c-24 -14 -28 -14 -47 3 -20 18 -21 30 -21 189 0 194 8 225 69 257 44 24 112 25 154 4z m561 5 c28 -13 38 -32 29 -55 -5 -13 -16 -15 -50 -11 -31 3 -49 0 -64 -12 -18 -15 -19 -26 -17 -160 l3 -145 35 -4 c87 -10 74 -72 -16 -72 -23 0 -24 -3 -24 -69 0 -76 -13 -101 -54 -101 -37 0 -49 25 -50 98 -1 65 -2 67 -31 77 -23 8 -30 16 -30 35 0 20 6 26 29 30 l29 5 2 161 c1 173 9 204 58 224 32 13 122 12 151 -1z m413 -14 c107 -53 154 -200 102 -315 -42 -93 -106 -133 -214 -133 -135 -1 -220 77 -232 213 -14 149 85 260 232 260 45 0 74 -7 112 -25z m324 8 c10 -11 16 -59 20 -157 7 -197 32 -235 133 -209 46 13 63 8 71 -18 10 -30 -12 -58 -55 -69 -55 -15 -85 -4 -125 44 l-35 41 0 -32 c0 -32 -21 -63 -44 -63 -7 0 -21 6 -32 14 -17 13 -19 30 -22 216 -3 171 -1 205 12 226 19 28 57 32 77 7z m401 0 c16 -15 18 -35 18 -220 0 -190 -1 -204 -20 -223 -11 -11 -26 -20 -34 -20 -17 0 -46 27 -46 43 -5 135 3 414 12 424 15 18 48 16 70 -4z m388 4 c17 -8 25 -21 25 -37 0 -23 -4 -25 -48 -26 -76 -3 -77 -6 -77 -174 l0 -147 35 -1 c46 -2 55 -8 55 -36 0 -24 -21 -36 -67 -36 -21 0 -23 -4 -23 -63 0 -71 -18 -107 -54 -107 -36 0 -46 21 -49 98 l-2 71 -32 6 c-17 3 -34 13 -37 22 -7 18 10 43 30 43 32 0 46 32 39 87 -4 30 -3 100 1 156 6 93 9 104 35 129 24 24 35 28 86 28 32 0 69 -6 83 -13z m771 1 c19 -6 50 -22 71 -34 l36 -23 27 34 c42 56 106 40 90 -22 -4 -16 -10 -93 -14 -173 -8 -167 -20 -202 -79 -228 -59 -26 -195 -23 -253 6 -81 40 -104 122 -36 130 19 2 29 -4 42 -26 24 -40 65 -62 113 -62 66 0 90 14 102 61 6 22 9 43 7 45 -2 2 -44 14 -93 25 -49 12 -106 25 -127 31 -90 22 -133 113 -87 186 35 56 121 78 201 50z m560 -4 c22 -11 29 -21 27 -37 -3 -20 -8 -22 -55 -20 -79 3 -84 -10 -81 -183 l3 -139 25 -3 c56 -6 70 -13 70 -32 0 -24 -28 -40 -69 -40 l-31 0 0 -66 c0 -81 -11 -104 -50 -104 -39 0 -50 23 -50 103 0 64 0 64 -32 73 -26 8 -33 15 -33 34 0 19 7 26 33 34 l32 9 0 156 c1 167 7 192 51 217 33 18 124 17 160 -2z m-4600 -29 c10 -16 32 -106 48 -200 17 -93 44 -244 61 -335 139 -774 142 -790 154 -720 3 19 10 96 16 170 30 399 40 528 45 560 2 19 7 80 10 135 3 55 8 116 10 135 2 19 7 73 10 120 10 148 13 160 42 160 l25 0 -6 -92 c-4 -51 -9 -118 -12 -148 -10 -125 -14 -179 -19 -245 -3 -38 -8 -95 -10 -125 -3 -30 -7 -84 -10 -120 -3 -36 -7 -85 -10 -110 -3 -25 -10 -112 -15 -195 -21 -294 -25 -321 -56 -342 -31 -20 -70 -6 -83 30 -5 13 -39 189 -75 393 -37 203 -71 392 -77 419 -5 28 -25 138 -45 245 -19 107 -39 199 -43 203 -11 11 -5 37 -85 -413 -149 -835 -153 -853 -176 -872 -28 -23 -42 -23 -69 0 -24 19 -34 75 -45 242 -4 52 -9 118 -11 145 -9 89 -24 288 -30 380 -3 50 -8 101 -10 115 -2 14 -7 70 -10 125 -4 55 -8 110 -10 122 -2 11 -7 71 -10 132 l-7 111 25 0 c28 0 30 -10 42 -175 3 -44 8 -100 10 -125 3 -25 9 -110 15 -190 6 -80 12 -163 15 -185 4 -41 32 -376 43 -539 4 -49 12 -91 17 -93 6 -2 24 77 44 184 18 104 53 298 77 433 24 135 58 322 74 415 17 94 35 188 41 210 21 78 67 97 100 40z m3750 14 c9 -17 8 -25 -5 -38 -13 -13 -45 -17 -155 -21 l-138 -5 139 -154 c193 -214 192 -218 -69 -220 -78 0 -153 3 -167 9 -27 10 -36 43 -15 56 6 3 65 6 130 5 65 -1 119 3 119 7 0 10 -36 52 -177 210 -92 102 -108 133 -81 160 9 9 69 12 210 12 191 0 198 -1 209 -21z m-4531 -11 c79 -33 139 -137 159 -274 5 -38 10 -295 10 -570 1 -440 -1 -502 -14 -508 -45 -17 -44 -27 -47 557 -3 493 -5 557 -20 595 -44 110 -95 141 -230 142 l-88 0 0 41 0 42 98 -5 c54 -3 113 -12 132 -20z m3662 -525 c36 -32 17 -83 -32 -83 -33 0 -50 17 -50 52 0 44 48 62 82 31z m-1254 -628 c62 -52 51 -139 -22 -174 -23 -12 -47 -21 -53 -21 -20 0 -51 -49 -46 -70 11 -43 85 -51 98 -11 6 21 42 34 51 19 11 -17 -6 -58 -31 -74 -14 -9 -44 -17 -67 -17 -55 0 -98 44 -98 101 0 46 23 71 93 101 56 24 76 57 59 96 -23 51 -104 37 -118 -20 -4 -18 -13 -25 -30 -25 -13 0 -24 5 -24 10 0 24 30 79 51 94 36 25 102 21 137 -9z m509 14 c15 -6 38 -20 51 -31 l22 -21 0 26 c0 20 5 27 20 27 28 0 31 -23 28 -200 -3 -153 -3 -155 -25 -156 -19 -1 -23 4 -23 29 l0 30 -22 -20 c-36 -32 -63 -43 -112 -43 -110 0 -186 76 -186 187 0 127 128 217 247 172z m850 0 c15 -6 38 -20 51 -31 l22 -21 0 26 c0 20 5 27 20 27 19 0 20 -7 20 -178 0 -171 -1 -178 -20 -178 -15 0 -20 7 -20 30 l0 29 -22 -20 c-36 -32 -63 -43 -112 -43 -56 0 -93 14 -129 48 -43 40 -57 75 -57 137 0 31 6 68 14 83 18 35 64 78 96 91 34 13 102 13 137 0z m442 -14 c52 -30 51 -30 51 -5 0 13 7 20 20 20 19 0 20 -7 20 -236 l0 -235 -22 3 c-22 3 -23 8 -23 81 0 42 -1 77 -2 77 -1 0 -19 -11 -39 -25 -48 -33 -129 -35 -184 -4 -101 57 -123 206 -42 293 57 61 146 73 221 31z m405 11 c72 -30 123 -133 106 -212 -21 -91 -92 -147 -186 -147 -66 0 -115 29 -149 88 -30 51 -36 135 -12 181 19 37 64 80 97 93 36 14 106 13 144 -3z m-2824 -231 c0 -228 -1 -235 -20 -235 -11 0 -20 6 -21 13 0 6 -1 112 -2 234 l-2 223 23 0 22 0 0 -235z m130 116 c0 -66 4 -131 10 -145 17 -46 90 -69 143 -45 42 19 50 46 48 162 -2 124 3 147 30 147 18 0 19 -8 19 -125 0 -134 -10 -174 -50 -210 -31 -28 -148 -29 -179 -1 -18 16 -21 17 -21 3 0 -20 -14 -29 -34 -21 -14 5 -16 30 -16 180 l0 174 25 0 25 0 0 -119z m660 -36 l0 -155 35 0 c30 0 35 -3 35 -23 0 -18 -5 -23 -22 -22 -42 4 -48 -5 -48 -62 0 -51 -2 -54 -22 -51 -20 3 -23 9 -24 48 -1 65 -3 72 -14 65 -18 -11 -50 6 -50 26 0 14 7 19 29 19 16 0 31 6 34 14 3 8 5 78 4 155 -2 140 -2 141 21 141 22 0 22 -1 22 -155z m570 -80 c0 -228 -1 -235 -20 -235 -19 0 -20 7 -20 235 0 228 1 235 20 235 19 0 20 -7 20 -235z m310 -1 c0 -233 0 -235 -21 -232 -21 3 -21 8 -22 235 l-2 233 23 0 22 0 0 -236z m1365 217 c3 -11 5 -66 4 -123 -3 -123 3 -144 44 -162 21 -8 33 -21 34 -35 2 -28 -26 -28 -61 0 -26 20 -26 20 -26 1 0 -14 -6 -19 -17 -18 -16 3 -18 20 -21 179 -2 170 -2 177 17 177 11 0 22 -9 26 -19z m-1511 -206 c4 -12 -17 -45 -29 -45 -2 0 -10 7 -19 15 -20 20 -10 45 19 45 13 0 25 -7 29 -15z"/>
<path d="M3422 3030 c-90 -55 -84 -262 8 -300 41 -17 93 -15 124 5 54 36 77 158 43 237 -18 43 -68 78 -112 78 -16 0 -45 -9 -63 -20z"/>
<path d="M5403 3049 c-45 -23 -49 -106 -6 -124 10 -4 57 -17 106 -29 l87 -22 0 30 c0 56 -20 104 -51 127 -35 25 -104 34 -136 18z"/>
<path d="M3451 1893 c-46 -23 -71 -67 -71 -127 0 -154 185 -200 256 -64 29 56 7 141 -47 181 -37 27 -97 31 -138 10z"/>
<path d="M4304 1896 c-97 -42 -104 -200 -11 -256 93 -57 221 30 202 138 -17 104 -103 156 -191 118z"/>
<path d="M4720 1892 c-48 -24 -83 -92 -74 -147 8 -51 27 -81 67 -105 41 -25 93 -25 134 0 94 57 86 215 -13 256 -44 18 -72 18 -114 -4z"/>
<path d="M5145 1896 c-42 -19 -65 -48 -76 -96 -13 -59 3 -111 48 -150 33 -30 41 -32 90 -28 42 4 60 11 83 33 50 48 59 119 24 186 -29 57 -109 83 -169 55z"/>
</g>


</svg>